<svg width="36" height="48" viewBox="0 0 36 48" fill="none" xmlns="http://www.w3.org/2000/svg">
<g clip-path="url(#clip0_1_456)">
<path d="M9.06423 33.9948C8.25316 33.1802 8.67596 33.4098 6.7197 32.8839C5.8321 32.6448 5.05183 32.1855 4.34623 31.6352L0.111696 42.0639C-0.298037 43.0736 0.467296 44.1705 1.55183 44.1292L6.46956 43.9408L9.85196 47.5295C10.5986 48.3208 11.909 48.0742 12.3188 47.0645L17.1768 35.1002C16.165 35.6664 15.0422 35.9983 13.8812 35.9983C12.0612 35.9983 10.3513 35.2867 9.06423 33.9948ZM35.7277 42.0639L31.4932 31.6352C30.7876 32.1864 30.0073 32.6448 29.1197 32.8839C27.1532 33.4127 27.5844 33.182 26.7752 33.9948C25.4881 35.2867 23.7773 35.9983 21.9573 35.9983C20.7962 35.9983 19.6734 35.6655 18.6617 35.1002L23.5197 47.0645C23.9294 48.0742 25.2408 48.3208 25.9865 47.5295L29.3698 43.9408L34.2876 44.1292C35.3721 44.1705 36.1374 43.0727 35.7277 42.0639ZM24.5464 31.8733C25.9725 30.4155 26.1358 30.5411 28.1668 29.9852C29.4632 29.6298 30.4768 28.5939 30.824 27.2683C31.5221 24.6058 31.341 24.9273 33.246 22.9792C34.1952 22.0089 34.5657 20.5942 34.2185 19.2686C33.5213 16.608 33.5204 16.9792 34.2185 14.3158C34.5657 12.9902 34.1952 11.5755 33.246 10.6052C31.341 8.65703 31.5221 8.97766 30.824 6.3161C30.4768 4.99047 29.4632 3.95453 28.1668 3.59922C25.5646 2.88578 25.8782 3.07235 23.9714 1.12328C23.0222 0.152971 21.6381 -0.226716 20.3417 0.128596C17.7405 0.841096 18.1036 0.842034 15.4977 0.128596C14.2013 -0.226716 12.8172 0.152034 11.868 1.12328C9.96303 3.07141 10.2766 2.88578 7.67356 3.59922C6.37716 3.95453 5.36356 4.99047 5.01636 6.3161C4.31916 8.97766 4.4993 8.65703 2.59436 10.6052C1.64516 11.5755 1.2737 12.9902 1.62183 14.3158C2.31903 16.9745 2.31996 16.6033 1.62183 19.2677C1.27463 20.5933 1.64516 22.008 2.59436 22.9792C4.4993 24.9273 4.31823 24.6058 5.01636 27.2683C5.36356 28.5939 6.37716 29.6298 7.67356 29.9852C9.76236 30.557 9.91823 30.467 11.293 31.8733C12.5278 33.1361 14.4514 33.362 15.9354 32.4189C16.5289 32.0405 17.2173 31.8395 17.9202 31.8395C18.6231 31.8395 19.3115 32.0405 19.9049 32.4189C21.388 33.362 23.3116 33.1361 24.5464 31.8733ZM9.11463 16.4945C9.11463 11.523 13.057 7.49266 17.9197 7.49266C22.7824 7.49266 26.7248 11.523 26.7248 16.4945C26.7248 21.4661 22.7824 25.4964 17.9197 25.4964C13.057 25.4964 9.11463 21.4661 9.11463 16.4945Z" fill="#00A0C1"/>
</g>
<defs>
<clipPath id="clip0_1_456">
<rect width="35.84" height="48" fill="white"/>
</clipPath>
</defs>
</svg>
