<svg width="48" height="45" viewBox="0 0 48 45" fill="none" xmlns="http://www.w3.org/2000/svg">
<g clip-path="url(#clip0_1_437)">
<path d="M23.8406 20.8023C28.1448 20.8023 31.4925 17.3069 31.4925 13.0172C31.4925 8.72741 27.9854 5.39093 23.6812 5.39093C19.377 5.39093 16.0293 8.88629 16.0293 13.0172C16.0293 17.3069 19.5364 20.8023 23.8406 20.8023ZM23.6812 8.56853C23.8406 8.56853 23.8406 8.56853 23.6812 8.56853C26.2318 8.56853 28.3042 10.634 28.3042 13.176C28.3042 15.7181 26.2318 17.6247 23.6812 17.6247C21.1306 17.6247 19.2176 15.5592 19.2176 13.176C19.2176 10.634 21.29 8.56853 23.6812 8.56853Z" fill="#00A0C1"/>
<path d="M47.434 19.8487C44.4051 17.1477 40.4198 15.7178 36.275 15.8767H34.9997C34.6808 17.1477 34.2026 18.2599 33.5649 19.2132C34.5214 19.0543 35.3185 19.0543 36.275 19.0543C39.3039 18.8954 42.3327 19.8487 44.724 21.5964V33.0357H47.9123V20.3253L47.434 19.8487Z" fill="#00A0C1"/>
<path d="M32.6083 5.70814C33.4053 3.80158 35.6371 2.8483 37.7095 3.6427C39.6225 4.4371 40.579 6.66141 39.7819 8.72685C39.1443 10.1568 37.7095 11.1101 36.2748 11.1101C35.956 11.1101 35.4777 11.1101 35.1589 10.9512C35.3183 11.7456 35.3183 12.54 35.3183 13.1755V14.1288C35.6371 14.1288 35.956 14.2876 36.2748 14.2876C40.2602 14.2876 43.4485 11.1101 43.4485 7.29693C43.4485 3.32494 40.2602 0.147339 36.4342 0.147339C33.8836 0.147339 31.6518 1.41838 30.3765 3.6427C31.1735 4.11934 31.9706 4.75486 32.6083 5.70814Z" fill="#00A0C1"/>
<path d="M14.4352 19.3722C13.7975 18.4189 13.3193 17.3068 13.0005 16.0357H11.7252C7.58037 15.8768 3.59501 17.3068 0.566134 19.8488L0.0878906 20.3255V33.0359H3.27618V21.5965C5.82681 19.8488 8.69628 18.8956 11.7252 19.0544C12.6816 19.0544 13.6381 19.2133 14.4352 19.3722Z" fill="#00A0C1"/>
<path d="M11.7251 14.1294C12.044 14.1294 12.3628 14.1294 12.6816 13.9705V13.0172C12.6816 12.2228 12.6816 11.4284 12.841 10.7929C12.5222 10.9518 12.044 10.9518 11.7251 10.9518C9.65273 10.9518 7.89917 9.20412 7.89917 7.13868C7.89917 5.07324 9.65273 3.32556 11.7251 3.32556C13.3193 3.32556 14.754 4.27884 15.3917 5.70876C16.0293 4.91436 16.9858 4.11996 17.7829 3.48444C15.7105 0.147963 11.4063 -0.964197 8.05859 1.10124C4.71088 3.16668 3.59498 7.45644 5.66737 10.7929C6.94269 12.8584 9.17449 14.1294 11.7251 14.1294Z" fill="#00A0C1"/>
<path d="M36.9128 29.3816L36.594 28.905C33.4057 25.4096 28.9421 23.3442 24.1596 23.5031C19.3772 23.3442 14.7542 25.4096 11.5659 28.905L11.2471 29.3816V41.4565C11.2471 42.8864 12.363 44.1574 13.9571 44.1574H34.3622C35.7969 44.1574 37.0722 42.8864 37.0722 41.4565V29.3816H36.9128ZM33.7245 40.9798H14.4354V30.4938C16.986 27.9517 20.4931 26.6807 24.1596 26.6807C27.6668 26.5218 31.1739 27.9517 33.7245 30.4938V40.9798Z" fill="#00A0C1"/>
</g>
<defs>
<clipPath id="clip0_1_437">
<rect width="48" height="44.2105" fill="white"/>
</clipPath>
</defs>
</svg>
